<svg width="24" height="21" viewBox="0 0 24 21" fill="none" xmlns="http://www.w3.org/2000/svg">
<path d="M3.25 0.25H5.75V2.75H3.25V0.25ZM6.25 0.25H8.75V2.75H6.25V0.25ZM0.25 3.25H2.75V5.75H0.25V3.25ZM0.25 6.25H2.75V8.75H0.25V6.25Z" fill="#109EFD" stroke="#090A0C" stroke-width="0.5"/>
<path d="M0.25 9.25H2.75V11.75H0.25V9.25ZM3.25 12.25H5.75V14.75H3.25V12.25Z" fill="#109EFD" stroke="#090A0C" stroke-width="0.5"/>
<path d="M6.25 12.25H8.75V14.75H6.25V12.25ZM9.25 12.25H11.75V14.75H9.25V12.25ZM12.25 12.25H14.75V14.75H12.25V12.25Z" fill="#109EFD" stroke="#090A0C" stroke-width="0.5"/>
<path d="M15.25 12.25H17.75V14.75H15.25V12.25ZM18.25 12.25H20.75V14.75H18.25V12.25Z" fill="#109EFD" stroke="#090A0C" stroke-width="0.5"/>
<path d="M6.25 15.25H8.75V17.75H6.25V15.25Z" fill="#109EFD" stroke="#090A0C" stroke-width="0.5"/>
<path d="M9.25 15.25H11.75V17.75H9.25V15.25ZM12.25 15.25H14.75V17.75H12.25V15.25ZM15.25 15.25H17.75V17.75H15.25V15.25ZM9.25 18.25H11.75V20.75H9.25V18.25ZM12.25 18.25H14.75V20.75H12.25V18.25Z" fill="#109EFD" stroke="#090A0C" stroke-width="0.5"/>
<path d="M3.25 3.25H5.75V5.75H3.25V3.25Z" fill="#109EFD" stroke="#090A0C" stroke-width="0.5"/>
<path d="M3.25 6.25H5.75V8.75H3.25V6.25ZM3.25 9.25H5.75V11.75H3.25V9.25ZM6.25 3.25H8.75V5.75H6.25V3.25ZM6.25 6.25H8.75V8.75H6.25V6.25ZM6.25 9.25H8.75V11.75H6.25V9.25ZM9.25 3.25H11.75V5.75H9.25V3.25ZM12.25 3.25H14.75V5.75H12.25V3.25ZM9.25 6.25H11.75V8.75H9.25V6.25Z" fill="#109EFD" stroke="#090A0C" stroke-width="0.5"/>
<path d="M9.25 9.25H11.75V11.75H9.25V9.25ZM12.25 6.25H14.75V8.75H12.25V6.25ZM12.25 9.25H14.75V11.75H12.25V9.25Z" fill="#109EFD" stroke="#090A0C" stroke-width="0.5"/>
<path d="M15.25 0.25H17.75V2.75H15.25V0.25Z" fill="#109EFD" stroke="#090A0C" stroke-width="0.5"/>
<path d="M15.25 3.25H17.75V5.75H15.25V3.25ZM15.25 6.25H17.75V8.75H15.25V6.25ZM15.25 9.25H17.75V11.75H15.25V9.25ZM18.25 0.25H20.75V2.75H18.25V0.25ZM18.25 3.25H20.75V5.75H18.25V3.25Z" fill="#109EFD" stroke="#090A0C" stroke-width="0.5"/>
<path d="M18.25 6.25H20.75V8.75H18.25V6.25ZM18.25 9.25H20.75V11.75H18.25V9.25ZM21.25 3.25H23.75V5.75H21.25V3.25ZM21.25 6.25H23.75V8.75H21.25V6.25ZM21.25 9.25H23.75V11.75H21.25V9.25Z" fill="#109EFD" stroke="#090A0C" stroke-width="0.5"/>
<mask id="mask0_1_1798" style="mask-type:alpha" maskUnits="userSpaceOnUse" x="0" y="0" width="24" height="21">
<path d="M3 0H6V3H3V0ZM6 0H9V3H6V0ZM0 3H3V6H0V3ZM0 6H3V9H0V6Z" fill="#E26136"/>
<path d="M0 9H3V12H0V9ZM3 12H6V15H3V12Z" fill="#FF8964"/>
<path d="M6 12H9V15H6V12ZM9 12H12V15H9V12ZM12 12H15V15H12V12Z" fill="#E26136"/>
<path d="M15 12H18V15H15V12ZM18 12H21V15H18V12Z" fill="#E64C19"/>
<path d="M6 15H9V18H6V15Z" fill="#E26136"/>
<path d="M9 15H12V18H9V15ZM12 15H15V18H12V15ZM15 15H18V18H15V15ZM9 18H12V21H9V18ZM12 18H15V21H12V18Z" fill="#E64C19"/>
<path d="M3 3H6V6H3V3Z" fill="#E26136"/>
<path d="M3 6H6V9H3V6ZM3 9H6V12H3V9ZM6 3H9V6H6V3ZM6 6H9V9H6V6ZM6 9H9V12H6V9ZM9 3H12V6H9V3ZM12 3H15V6H12V3ZM9 6H12V9H9V6Z" fill="#FF8964"/>
<path d="M9 9H12V12H9V9ZM12 6H15V9H12V6ZM12 9H15V12H12V9Z" fill="#E26136"/>
<path d="M15 0H18V3H15V0Z" fill="#FF8964"/>
<path d="M15 3H18V6H15V3ZM15 6H18V9H15V6ZM15 9H18V12H15V9ZM18 0H21V3H18V0ZM18 3H21V6H18V3Z" fill="#E26136"/>
<path d="M18 6H21V9H18V6ZM18 9H21V12H18V9ZM21 3H24V6H21V3ZM21 6H24V9H21V6ZM21 9H24V12H21V9Z" fill="#E64C19"/>
</mask>
<g mask="url(#mask0_1_1798)">
<g filter="url(#filter0_f_1_1798)">
<path d="M25 29C32.732 29 39 22.732 39 15C39 7.26801 32.732 1 25 1C17.268 1 11 7.26801 11 15C11 22.732 17.268 29 25 29Z" fill="#51BAFF"/>
</g>
</g>
<defs>
<filter id="filter0_f_1_1798" x="-11" y="-21" width="72" height="72" filterUnits="userSpaceOnUse" color-interpolation-filters="sRGB">
<feFlood flood-opacity="0" result="BackgroundImageFix"/>
<feBlend mode="normal" in="SourceGraphic" in2="BackgroundImageFix" result="shape"/>
<feGaussianBlur stdDeviation="11" result="effect1_foregroundBlur_1_1798"/>
</filter>
</defs>
</svg>
