<svg width="12" height="20" viewBox="0 0 12 20" fill="none" xmlns="http://www.w3.org/2000/svg">
<path d="M9.33862 4.07124e-05H2.45167C2.12945 -0.000889498 1.81023 0.0618457 1.51236 0.184638C1.21449 0.307431 0.943853 0.487858 0.71601 0.715543C0.488166 0.943229 0.307614 1.21368 0.184736 1.51134C0.0618579 1.80901 -0.000920655 2.12801 1.0202e-05 2.45V17.1498C1.0202e-05 18.5084 1.1144 19.5997 2.45167 19.5997H9.33862C9.66084 19.6007 9.98006 19.5379 10.2779 19.4151C10.5758 19.2923 10.8464 19.1119 11.0743 18.8842C11.3021 18.6565 11.4827 18.3861 11.6056 18.0884C11.7284 17.7908 11.7912 17.4718 11.7903 17.1498V2.45C11.7912 2.12801 11.7284 1.80901 11.6056 1.51134C11.4827 1.21368 11.3021 0.943229 11.0743 0.715543C10.8464 0.487858 10.5758 0.307431 10.2779 0.184638C9.98006 0.0618457 9.66084 -0.000889498 9.33862 4.07124e-05ZM5.90629 18.0184C5.28223 18.0184 4.7919 17.5284 4.7919 16.9048C4.7919 16.2811 5.28223 15.7912 5.90629 15.7912C6.53035 15.7912 7.02068 16.2811 7.02068 16.9048C7.02068 17.5284 6.53035 18.0184 5.90629 18.0184ZM10.6759 14.6107H1.1144V3.27408H10.6759V14.6107Z" fill="white"/>
</svg>
