<svg width="12" height="12" viewBox="0 0 12 12" fill="none" xmlns="http://www.w3.org/2000/svg">
<path fill-rule="evenodd" clip-rule="evenodd" d="M5.44097 7.81464C5.44097 7.48148 5.30871 7.16214 5.07308 6.92692C4.95656 6.81025 4.81818 6.7177 4.66586 6.65457C4.51353 6.59144 4.35025 6.55897 4.18536 6.55903H1.25561C0.922454 6.55903 0.603111 6.69129 0.367893 6.92692C0.251217 7.04344 0.158666 7.18182 0.0955375 7.33414C0.0324094 7.48647 -5.59023e-05 7.64975 7.22573e-08 7.81464V10.7444C7.22573e-08 11.0775 0.132257 11.3969 0.367893 11.6321C0.484405 11.7488 0.622785 11.8413 0.775112 11.9045C0.927438 11.9676 1.09072 12.0001 1.25561 12H4.18536C4.51852 12 4.83786 11.8677 5.07308 11.6321C5.18975 11.5156 5.2823 11.3772 5.34543 11.2249C5.40856 11.0726 5.44103 10.9093 5.44097 10.7444V7.81464ZM11.719 7.81464C11.719 7.48148 11.5868 7.16214 11.3511 6.92692C11.2346 6.81025 11.0962 6.7177 10.9439 6.65457C10.7916 6.59144 10.6283 6.55897 10.4634 6.55903H7.53365C7.2005 6.55903 6.88115 6.69129 6.64594 6.92692C6.52926 7.04344 6.43671 7.18182 6.37358 7.33414C6.31045 7.48647 6.27799 7.64975 6.27804 7.81464V10.7444C6.27804 11.0775 6.4103 11.3969 6.64594 11.6321C6.76245 11.7488 6.90083 11.8413 7.05315 11.9045C7.20548 11.9676 7.36876 12.0001 7.53365 12H10.4634C10.7966 12 11.1159 11.8677 11.3511 11.6321C11.4678 11.5156 11.5603 11.3772 11.6235 11.2249C11.6866 11.0726 11.7191 10.9093 11.719 10.7444V7.81464ZM9.88624 5.63532L11.6324 3.88919C11.8678 3.65373 12 3.33442 12 3.00147C12 2.66853 11.8678 2.34922 11.6324 2.11376L9.88624 0.367625C9.65078 0.132235 9.33147 0 8.99853 0C8.66558 0 8.34627 0.132235 8.11081 0.367625L6.36468 2.11376C6.12929 2.34922 5.99705 2.66853 5.99705 3.00147C5.99705 3.33442 6.12929 3.65373 6.36468 3.88919L8.11081 5.63532C8.34627 5.87071 8.66558 6.00295 8.99853 6.00295C9.33147 6.00295 9.65078 5.87071 9.88624 5.63532ZM5.44097 1.5366C5.44097 1.20344 5.30871 0.884099 5.07308 0.648881C4.95656 0.532205 4.81818 0.439654 4.66586 0.376526C4.51353 0.313397 4.35025 0.280932 4.18536 0.280988H1.25561C0.922454 0.280988 0.603111 0.413246 0.367893 0.648881C0.251217 0.765394 0.158666 0.903774 0.0955375 1.0561C0.0324094 1.20843 -5.59023e-05 1.37171 7.22573e-08 1.5366V4.46635C7.22573e-08 4.7995 0.132257 5.11885 0.367893 5.35406C0.484405 5.47074 0.622785 5.56329 0.775112 5.62642C0.927438 5.68955 1.09072 5.72201 1.25561 5.72196H4.18536C4.51852 5.72196 4.83786 5.5897 5.07308 5.35406C5.18975 5.23755 5.2823 5.09917 5.34543 4.94685C5.40856 4.79452 5.44103 4.63124 5.44097 4.46635V1.5366Z" fill="white"/>
</svg>
