<svg width="59" height="40" viewBox="0 0 59 40" fill="none" xmlns="http://www.w3.org/2000/svg">
<path d="M13.0896 0H0L23.0237 39.9701L29.2179 27.9323L13.0896 0Z" fill="#109EFD"/>
<path d="M45.5799 7.05719e-05H58.6696L35.6458 39.9702L29.4516 27.9324L45.5799 7.05719e-05Z" fill="#FFC107"/>
<path d="M21.6487 1.97845C21.8364 1.79926 22.0769 1.68353 22.3354 1.64793C22.5939 1.61234 22.8572 1.6587 23.0874 1.78035L28.2231 4.51062C28.4914 4.65226 28.7909 4.72637 29.095 4.72637C29.3992 4.72637 29.6987 4.65226 29.967 4.51062L35.1027 1.78035C35.3328 1.6587 35.5962 1.61234 35.8547 1.64794C36.1132 1.68353 36.3537 1.79926 36.5414 1.97845C36.7323 2.15512 36.8614 2.3872 36.91 2.64111C36.9586 2.89503 36.9241 3.15764 36.8117 3.39095L30.2068 15.6886C30.1044 15.891 29.9469 16.0612 29.7521 16.1801C29.5573 16.2991 29.3328 16.3621 29.1038 16.3621C28.8747 16.3621 28.6502 16.2991 28.4554 16.1801C28.2606 16.0612 28.1032 15.891 28.0008 15.6886L21.3959 3.39095C21.2813 3.15937 21.244 2.89785 21.2895 2.64403C21.3349 2.39021 21.4607 2.15717 21.6487 1.97845Z" fill="white"/>
</svg>
