<svg width="195" height="47" viewBox="0 0 195 47" fill="none" xmlns="http://www.w3.org/2000/svg">
<path d="M13.0896 3.3912H0L23.0237 43.3613L29.2179 31.3235L13.0896 3.3912Z" fill="#109EFD"/>
<path d="M45.5799 3.39127H58.6696L35.6458 43.3614L29.4516 31.3236L45.5799 3.39127Z" fill="#FFC107"/>
<path d="M21.6487 5.36964C21.8364 5.19045 22.0769 5.07473 22.3354 5.03913C22.5939 5.00353 22.8572 5.0499 23.0874 5.17155L28.2231 7.90182C28.4914 8.04346 28.7909 8.11757 29.095 8.11757C29.3992 8.11757 29.6987 8.04346 29.967 7.90182L35.1027 5.17155C35.3328 5.0499 35.5962 5.00354 35.8547 5.03913C36.1132 5.07473 36.3537 5.19046 36.5414 5.36965C36.7323 5.54632 36.8614 5.7784 36.91 6.03231C36.9586 6.28623 36.9241 6.54883 36.8117 6.78215L30.2068 19.0798C30.1044 19.2822 29.9469 19.4524 29.7521 19.5713C29.5573 19.6903 29.3328 19.7533 29.1038 19.7533C28.8747 19.7533 28.6502 19.6903 28.4554 19.5713C28.2606 19.4524 28.1032 19.2822 28.0008 19.0798L21.3959 6.78215C21.2813 6.55057 21.244 6.28905 21.2895 6.03523C21.3349 5.78141 21.4607 5.54837 21.6487 5.36964Z" fill="white"/>
<line x1="69.1696" y1="2.18557e-08" x2="69.1696" y2="46.4609" stroke="white"/>
<path d="M82.4259 19.7948L78.6696 6.10435H80.3599L83.2309 17.2546H83.365L86.2896 6.10435H88.1678L91.0924 17.2546H91.2266L94.0975 6.10435H95.7879L92.0315 19.7948H90.3143L87.2824 8.88522H87.1751L84.1431 19.7948H82.4259Z" fill="white"/>
<path d="M101.007 20.0087C100.014 20.0087 99.1575 19.7903 98.4375 19.3536C97.722 18.9124 97.1697 18.2974 96.7807 17.5086C96.3961 16.7153 96.2038 15.7928 96.2038 14.7411C96.2038 13.6893 96.3961 12.7624 96.7807 11.9602C97.1697 11.1536 97.7108 10.5252 98.4039 10.0751C99.1016 9.62054 99.9154 9.39326 100.846 9.39326C101.382 9.39326 101.912 9.48239 102.435 9.66065C102.959 9.83891 103.435 10.1286 103.864 10.5297C104.293 10.9263 104.636 11.4522 104.89 12.1073C105.145 12.7624 105.273 13.569 105.273 14.5272V15.1957H97.3307V13.832H103.663C103.663 13.2526 103.547 12.7357 103.314 12.2811C103.086 11.8265 102.76 11.4678 102.335 11.2048C101.914 10.9419 101.418 10.8104 100.846 10.8104C100.215 10.8104 99.6695 10.9664 99.2089 11.2784C98.7528 11.5859 98.4017 11.987 98.1558 12.4816C97.9098 12.9763 97.7868 13.5066 97.7868 14.0726V14.9817C97.7868 15.7572 97.921 16.4145 98.1893 16.9538C98.4621 17.4885 98.84 17.8963 99.3229 18.1771C99.8059 18.4534 100.367 18.5915 101.007 18.5915C101.422 18.5915 101.798 18.5336 102.133 18.4177C102.473 18.2974 102.766 18.1191 103.012 17.8829C103.258 17.6423 103.448 17.3437 103.582 16.9872L105.112 17.415C104.951 17.932 104.68 18.3865 104.3 18.7787C103.92 19.1664 103.45 19.4695 102.891 19.6878C102.332 19.9017 101.704 20.0087 101.007 20.0087Z" fill="white"/>
<path d="M107.895 19.7948V6.10435H109.479V11.158H109.613C109.729 10.9798 109.89 10.7525 110.096 10.4762C110.306 10.1954 110.605 9.94587 110.995 9.7275C111.388 9.50468 111.92 9.39326 112.591 9.39326C113.459 9.39326 114.223 9.6094 114.885 10.0417C115.547 10.474 116.063 11.0867 116.435 11.88C116.806 12.6733 116.991 13.6091 116.991 14.6876C116.991 15.775 116.806 16.7176 116.435 17.5153C116.063 18.3085 115.549 18.9235 114.892 19.3603C114.234 19.7926 113.476 20.0087 112.618 20.0087C111.956 20.0087 111.426 19.8995 111.028 19.6811C110.63 19.4583 110.324 19.2065 110.109 18.9258C109.894 18.6405 109.729 18.4043 109.613 18.2172H109.425V19.7948H107.895ZM109.452 14.6609C109.452 15.4363 109.566 16.1204 109.794 16.7131C110.022 17.3014 110.355 17.7626 110.793 18.0968C111.232 18.4266 111.768 18.5915 112.403 18.5915C113.065 18.5915 113.617 18.4177 114.06 18.0701C114.507 17.718 114.843 17.2457 115.066 16.6529C115.294 16.0558 115.408 15.3917 115.408 14.6609C115.408 13.9389 115.296 13.2883 115.073 12.7089C114.854 12.1251 114.521 11.6639 114.073 11.3252C113.631 10.982 113.074 10.8104 112.403 10.8104C111.759 10.8104 111.218 10.9731 110.78 11.2984C110.342 11.6193 110.011 12.0694 109.787 12.6488C109.564 13.2236 109.452 13.8943 109.452 14.6609Z" fill="white"/>
<path d="M124.113 19.7685V6.10435H132.435V7.57218H125.783V12.1892H132.004V13.657H125.783V18.3007H132.542V19.7685H124.113Z" fill="white"/>
<path d="M139.134 19.982C138.272 19.982 137.511 19.7663 136.851 19.3348C136.192 18.8989 135.675 18.2851 135.303 17.4934C134.93 16.6972 134.744 15.7564 134.744 14.6711C134.744 13.5947 134.93 12.6607 135.303 11.8689C135.675 11.0772 136.194 10.4656 136.858 10.0341C137.522 9.60268 138.29 9.38695 139.161 9.38695C139.834 9.38695 140.366 9.49815 140.756 9.72055C141.151 9.9385 141.452 10.1876 141.659 10.4678C141.87 10.7436 142.033 10.9704 142.15 11.1483H142.285V6.10435H143.874V19.7685H142.339V18.1939H142.15C142.033 18.3807 141.867 18.6165 141.652 18.9012C141.436 19.1814 141.129 19.4327 140.729 19.6551C140.33 19.873 139.798 19.982 139.134 19.982ZM139.349 18.5676C139.987 18.5676 140.525 18.403 140.965 18.0738C141.405 17.7402 141.739 17.2799 141.968 16.6927C142.197 16.1012 142.312 15.4184 142.312 14.6444C142.312 13.8794 142.199 13.21 141.975 12.6362C141.751 12.058 141.418 11.6087 140.979 11.2885C140.539 10.9638 139.996 10.8014 139.349 10.8014C138.676 10.8014 138.115 10.9727 137.666 11.3151C137.222 11.6532 136.887 12.1136 136.663 12.6962C136.443 13.2745 136.333 13.9239 136.333 14.6444C136.333 15.3739 136.445 16.0367 136.67 16.6327C136.899 17.2243 137.235 17.6958 137.68 18.0471C138.128 18.3941 138.685 18.5676 139.349 18.5676Z" fill="white"/>
<path d="M153.522 15.5785V9.52039H155.111V19.7685H153.522V18.0338H153.414C153.172 18.5542 152.795 18.9968 152.283 19.3615C151.771 19.7218 151.125 19.9019 150.344 19.9019C149.698 19.9019 149.123 19.7618 148.62 19.4816C148.118 19.1969 147.723 18.7699 147.435 18.2006C147.148 17.6268 147.004 16.904 147.004 16.0322V9.52039H148.593V15.9255C148.593 16.6727 148.804 17.2687 149.226 17.7135C149.653 18.1583 150.196 18.3807 150.856 18.3807C151.251 18.3807 151.652 18.2807 152.061 18.0805C152.474 17.8803 152.819 17.5734 153.098 17.1598C153.38 16.7461 153.522 16.219 153.522 15.5785Z" fill="white"/>
<path d="M162.222 19.982C161.253 19.982 160.418 19.7552 159.718 19.3015C159.017 18.8478 158.479 18.2228 158.102 17.4267C157.725 16.6305 157.536 15.7209 157.536 14.6978C157.536 13.657 157.729 12.7385 158.115 11.9423C158.506 11.1417 159.049 10.5167 159.744 10.0675C160.445 9.6138 161.262 9.38695 162.195 9.38695C162.922 9.38695 163.578 9.52039 164.161 9.78727C164.745 10.0541 165.223 10.4278 165.595 10.9082C165.968 11.3885 166.199 11.949 166.289 12.5895H164.7C164.579 12.1224 164.309 11.7088 163.892 11.3485C163.479 10.9838 162.922 10.8014 162.222 10.8014C161.603 10.8014 161.06 10.9615 160.593 11.2818C160.131 11.5976 159.769 12.0446 159.509 12.6228C159.253 13.1966 159.125 13.8705 159.125 14.6444C159.125 15.4362 159.251 16.1256 159.502 16.7128C159.758 17.2999 160.117 17.7558 160.579 18.0805C161.046 18.4052 161.594 18.5676 162.222 18.5676C162.635 18.5676 163.01 18.4964 163.347 18.3541C163.683 18.2117 163.968 18.0071 164.202 17.7402C164.435 17.4734 164.601 17.1531 164.7 16.7795H166.289C166.199 17.3844 165.977 17.9293 165.622 18.4141C165.272 18.8945 164.808 19.277 164.229 19.5617C163.654 19.8419 162.985 19.982 162.222 19.982Z" fill="white"/>
<path d="M171.655 20.0087C170.999 20.0087 170.405 19.8864 169.871 19.6417C169.336 19.3927 168.912 19.0346 168.598 18.5676C168.284 18.0961 168.127 17.5267 168.127 16.8595C168.127 16.2724 168.243 15.7965 168.477 15.4317C168.71 15.0626 169.022 14.7734 169.413 14.5644C169.803 14.3553 170.234 14.1997 170.705 14.0973C171.181 13.9906 171.659 13.9061 172.139 13.8438C172.768 13.7637 173.277 13.7037 173.668 13.6637C174.063 13.6192 174.35 13.5458 174.53 13.4435C174.714 13.3412 174.806 13.1633 174.806 12.9097V12.8564C174.806 12.1981 174.624 11.6865 174.26 11.3218C173.901 10.9571 173.356 10.7747 172.624 10.7747C171.866 10.7747 171.271 10.9393 170.84 11.2684C170.409 11.5976 170.106 11.949 169.931 12.3226L168.423 11.7889C168.692 11.1661 169.051 10.6813 169.5 10.3344C169.954 9.98298 170.447 9.73834 170.981 9.60045C171.52 9.45812 172.05 9.38695 172.57 9.38695C172.903 9.38695 173.284 9.42698 173.715 9.50704C174.15 9.58266 174.57 9.74056 174.974 9.98075C175.382 10.2209 175.721 10.5835 175.991 11.0683C176.26 11.5531 176.395 12.2025 176.395 13.0165V19.7685H174.806V18.3807H174.725C174.617 18.6031 174.438 18.8411 174.186 19.0946C173.935 19.3482 173.601 19.5639 173.183 19.7418C172.766 19.9197 172.256 20.0087 171.655 20.0087ZM171.897 18.5942C172.526 18.5942 173.055 18.4719 173.486 18.2273C173.921 17.9826 174.249 17.6668 174.469 17.2799C174.693 16.8929 174.806 16.4859 174.806 16.0589V14.6178C174.738 14.6978 174.59 14.7712 174.361 14.8379C174.137 14.9002 173.877 14.9558 173.58 15.0047C173.289 15.0492 173.004 15.0892 172.725 15.1248C172.451 15.156 172.229 15.1827 172.059 15.2049C171.646 15.2583 171.26 15.345 170.901 15.4651C170.546 15.5807 170.259 15.7564 170.039 15.9922C169.823 16.2235 169.716 16.5393 169.716 16.9396C169.716 17.4867 169.92 17.9004 170.328 18.1806C170.741 18.4564 171.264 18.5942 171.897 18.5942Z" fill="white"/>
<path d="M179.295 19.7685V9.52039H180.83V11.0683H180.938C181.126 10.5612 181.467 10.1498 181.961 9.83397C182.455 9.51816 183.011 9.36026 183.631 9.36026C183.747 9.36026 183.893 9.36249 184.068 9.36693C184.243 9.37138 184.376 9.37805 184.466 9.38695V10.9882C184.412 10.9749 184.288 10.9549 184.095 10.9282C183.907 10.897 183.707 10.8815 183.496 10.8815C182.993 10.8815 182.544 10.986 182.149 11.195C181.759 11.3997 181.449 11.6843 181.22 12.0491C180.996 12.4093 180.884 12.8208 180.884 13.2834V19.7685H179.295Z" fill="white"/>
<path d="M190.37 19.982C189.374 19.982 188.514 19.7641 187.791 19.3282C187.073 18.8878 186.519 18.274 186.128 17.4867C185.742 16.695 185.549 15.7742 185.549 14.7245C185.549 13.6748 185.742 12.7496 186.128 11.949C186.519 11.1439 187.062 10.5167 187.758 10.0675C188.458 9.6138 189.275 9.38695 190.209 9.38695C190.747 9.38695 191.279 9.47591 191.804 9.65383C192.329 9.83175 192.807 10.1209 193.238 10.5212C193.669 10.9171 194.013 11.4419 194.268 12.0958C194.524 12.7496 194.652 13.5547 194.652 14.511V15.1782H186.681V13.8171H193.036C193.036 13.2389 192.92 12.7229 192.686 12.2692C192.457 11.8155 192.13 11.4575 191.703 11.195C191.281 10.9326 190.783 10.8014 190.209 10.8014C189.576 10.8014 189.028 10.9571 188.566 11.2684C188.108 11.5753 187.756 11.9757 187.509 12.4694C187.262 12.9631 187.138 13.4924 187.138 14.0573V14.9647C187.138 15.7386 187.273 16.3947 187.542 16.9329C187.816 17.4667 188.195 17.8737 188.68 18.1539C189.165 18.4297 189.728 18.5676 190.37 18.5676C190.788 18.5676 191.165 18.5097 191.501 18.3941C191.842 18.274 192.136 18.0961 192.383 17.8603C192.63 17.6201 192.821 17.3221 192.956 16.9663L194.491 17.3933C194.329 17.9093 194.057 18.3629 193.676 18.7544C193.294 19.1413 192.823 19.4438 192.262 19.6618C191.701 19.8753 191.07 19.982 190.37 19.982Z" fill="white"/>
<path d="M91.0062 30.8583H89.333C89.2341 30.3878 89.0609 29.9744 88.8135 29.6182C88.5706 29.2621 88.2738 28.963 87.9229 28.7212C87.5766 28.4749 87.192 28.2903 86.7692 28.1671C86.3464 28.044 85.9057 27.9824 85.4469 27.9824C84.6103 27.9824 83.8524 28.1891 83.1732 28.6025C82.4985 29.0158 81.9611 29.6248 81.5607 30.4296C81.1649 31.2343 80.967 32.2215 80.967 33.3912C80.967 34.5608 81.1649 35.548 81.5607 36.3528C81.9611 37.1575 82.4985 37.7665 83.1732 38.1798C83.8524 38.5932 84.6103 38.7999 85.4469 38.7999C85.9057 38.7999 86.3464 38.7383 86.7692 38.6152C87.192 38.4921 87.5766 38.3096 87.9229 38.0677C88.2738 37.8215 88.5706 37.5202 88.8135 37.1641C89.0609 36.8035 89.2341 36.3901 89.333 35.924H91.0062C90.8803 36.6144 90.6509 37.2322 90.318 37.7775C89.9852 38.3228 89.5714 38.7867 89.0766 39.1692C88.5819 39.5474 88.0264 39.8354 87.4102 40.0333C86.7985 40.2312 86.144 40.3301 85.4469 40.3301C84.2684 40.3301 83.2204 40.0487 82.3029 39.4858C81.3853 38.923 80.6634 38.1227 80.1372 37.0849C79.6109 36.0471 79.3478 34.8159 79.3478 33.3912C79.3478 31.9664 79.6109 30.7352 80.1372 29.6974C80.6634 28.6596 81.3853 27.8593 82.3029 27.2965C83.2204 26.7336 84.2684 26.4522 85.4469 26.4522C86.144 26.4522 86.7985 26.5511 87.4102 26.749C88.0264 26.9469 88.5819 27.2371 89.0766 27.6197C89.5714 27.9978 89.9852 28.4596 90.318 29.0048C90.6509 29.5457 90.8803 30.1635 91.0062 30.8583Z" fill="white"/>
<path d="M97.839 40.3565C96.8405 40.3565 95.9791 40.141 95.255 39.7101C94.5353 39.2748 93.9798 38.6679 93.5885 37.8896C93.2017 37.1069 93.0083 36.1966 93.0083 35.1589C93.0083 34.1211 93.2017 33.2065 93.5885 32.4149C93.9798 31.619 94.5241 30.999 95.2212 30.5549C95.9229 30.1064 96.7415 29.8821 97.6771 29.8821C98.2168 29.8821 98.7498 29.97 99.276 30.1459C99.8023 30.3218 100.281 30.6076 100.713 31.0034C101.145 31.3948 101.489 31.9137 101.745 32.5601C102.002 33.2065 102.13 34.0024 102.13 34.9478V35.6074H94.1418V34.2618H100.511C100.511 33.6902 100.394 33.1801 100.16 32.7316C99.9305 32.283 99.6021 31.929 99.1748 31.6696C98.752 31.4102 98.2528 31.2804 97.6771 31.2804C97.0429 31.2804 96.4941 31.4343 96.0308 31.7422C95.5721 32.0456 95.219 32.4413 94.9716 32.9294C94.7242 33.4175 94.6005 33.9408 94.6005 34.4993V35.3963C94.6005 36.1615 94.7355 36.8101 95.0053 37.3422C95.2797 37.8698 95.6598 38.2722 96.1455 38.5492C96.6313 38.8219 97.1958 38.9582 97.839 38.9582C98.2573 38.9582 98.6351 38.901 98.9724 38.7867C99.3143 38.6679 99.6089 38.4921 99.8563 38.259C100.104 38.0215 100.295 37.7269 100.43 37.3751L101.968 37.7973C101.806 38.3074 101.534 38.7559 101.152 39.1429C100.769 39.5254 100.297 39.8244 99.7348 40.0399C99.1726 40.251 98.5406 40.3565 97.839 40.3565Z" fill="white"/>
<path d="M106.144 34.0508V40.1454H104.552V30.014H106.09V31.597H106.225C106.468 31.0826 106.837 30.6692 107.332 30.357C107.826 30.0404 108.465 29.8821 109.248 29.8821C109.949 29.8821 110.563 30.0228 111.09 30.3042C111.616 30.5813 112.025 31.0034 112.318 31.5707C112.61 32.1335 112.756 32.8459 112.756 33.7078V40.1454H111.164V33.8133C111.164 33.0174 110.952 32.3974 110.53 31.9532C110.107 31.5047 109.527 31.2804 108.789 31.2804C108.281 31.2804 107.826 31.3882 107.426 31.6036C107.03 31.8191 106.718 32.1335 106.488 32.5469C106.259 32.9602 106.144 33.4615 106.144 34.0508Z" fill="white"/>
<path d="M120.172 30.014V31.3332H114.802V30.014H120.172ZM116.367 27.5867H117.959V37.2432C117.959 37.6829 118.025 38.0127 118.155 38.2326C118.29 38.4481 118.461 38.5932 118.668 38.6679C118.879 38.7383 119.102 38.7735 119.336 38.7735C119.511 38.7735 119.655 38.7647 119.768 38.7471C119.88 38.7251 119.97 38.7075 120.037 38.6943L120.361 40.0927C120.253 40.1323 120.103 40.1718 119.909 40.2114C119.716 40.2554 119.471 40.2774 119.174 40.2774C118.724 40.2774 118.283 40.1828 117.852 39.9937C117.424 39.8047 117.069 39.5166 116.786 39.1297C116.507 38.7427 116.367 38.2546 116.367 37.6654V27.5867Z" fill="white"/>
<path d="M126.801 40.3565C125.803 40.3565 124.941 40.141 124.217 39.7101C123.497 39.2748 122.942 38.6679 122.551 37.8896C122.164 37.1069 121.97 36.1966 121.97 35.1589C121.97 34.1211 122.164 33.2065 122.551 32.4149C122.942 31.619 123.486 30.999 124.183 30.5549C124.885 30.1064 125.704 29.8821 126.639 29.8821C127.179 29.8821 127.712 29.97 128.238 30.1459C128.764 30.3218 129.243 30.6076 129.675 31.0034C130.107 31.3948 130.451 31.9137 130.707 32.5601C130.964 33.2065 131.092 34.0024 131.092 34.9478V35.6074H123.104V34.2618H129.473C129.473 33.6902 129.356 33.1801 129.122 32.7316C128.893 32.283 128.564 31.929 128.137 31.6696C127.714 31.4102 127.215 31.2804 126.639 31.2804C126.005 31.2804 125.456 31.4343 124.993 31.7422C124.534 32.0456 124.181 32.4413 123.934 32.9294C123.686 33.4175 123.563 33.9408 123.563 34.4993V35.3963C123.563 36.1615 123.698 36.8101 123.967 37.3422C124.242 37.8698 124.622 38.2722 125.108 38.5492C125.593 38.8219 126.158 38.9582 126.801 38.9582C127.219 38.9582 127.597 38.901 127.935 38.7867C128.276 38.6679 128.571 38.4921 128.818 38.259C129.066 38.0215 129.257 37.7269 129.392 37.3751L130.93 37.7973C130.768 38.3074 130.496 38.7559 130.114 39.1429C129.731 39.5254 129.259 39.8244 128.697 40.0399C128.135 40.251 127.503 40.3565 126.801 40.3565Z" fill="white"/>
<path d="M133.514 40.1454V30.014H135.052V31.5443H135.16C135.349 31.043 135.691 30.6362 136.186 30.324C136.681 30.0118 137.238 29.8557 137.859 29.8557C137.976 29.8557 138.122 29.8579 138.298 29.8623C138.473 29.8667 138.606 29.8733 138.696 29.8821V31.4651C138.642 31.4519 138.518 31.4321 138.325 31.4058C138.136 31.375 137.936 31.3596 137.724 31.3596C137.22 31.3596 136.771 31.4629 136.375 31.6696C135.983 31.8719 135.673 32.1533 135.444 32.5139C135.219 32.8701 135.106 33.2768 135.106 33.7341V40.1454H133.514Z" fill="white"/>
</svg>
